<svg width="90" height="182" fill="none" xmlns="http://www.w3.org/2000/svg"><g clip-path="url(#a)"><path d="M.001 11.697C17.405 14.807 49.216 49 61.034 76.505c12.839 29.7 14.596 48.446 8.115 89.601 2.261-1.175 4.008-2.332 5.739-3.092 1.936-.951 3.992-1.936 6.068-2.402.6-.173 1.994.605 2.323 1.296.329.691-.163 2.142-.694 2.557-5.135 3.836-10.34 7.429-15.63 11.179-1.747 1.157-3.396.846-4.588-1.037-4.184-7.308-8.488-14.582-12.586-22.046-.882-1.711-1.029-4.026-1.725-6.445 5.719.45 6.372 4.976 8.597 7.741 2.38 2.85 4.23 6.116 6.89 9.934 3.832-11.973 5.11-23.342 4.652-34.866-1.507-42.26-20.115-76.194-51.606-103.406-4.134-3.524-8.644-6.548-12.864-9.917-.983-1.158-1.931-2.194-3.724-3.905z" fill="#0046FE"/></g><defs><clipPath id="a"><path fill="#fff" transform="rotate(73.94 20.317 26.991)" d="M0 0h176.284v42.284H0z"/></clipPath></defs></svg>