<svg width="86" height="410" fill="none" xmlns="http://www.w3.org/2000/svg"><path d="M34.239 3C14.447 28.835-11.99 64.637 13.516 104.993c8.162 12.915 44.01 34.552 40.561 61.164-4.1 31.633-30.093 41.373-3.011 62.583 3.772 2.955 17.072 11.028 18.155 19.705 1.154 9.241-10.692 23.873-13.373 31.371-3.743 10.469 3.663 24.384 7.794 30.266 9.508 13.541 8.668 23.239 4.782 41.302-4.316 20.06.308 29.101 5.314 46.031 1.75 5.92 3.058 11.498 5.49 2.837.953-3.39 5.772-25.826 2.835-17.655-2.439 6.782-1.754 18.671-4.428 23.961-1.462 2.891-9.827-9.266-12.754-11.35-2.291-1.632-7.449-3.188-8.324-6.306" stroke="#0046FE" stroke-width="6" stroke-linecap="round"/></svg>