<svg width="214" height="81" viewBox="0 0 214 81" fill="none" xmlns="http://www.w3.org/2000/svg">
<path d="M30.662 38.6706C30.4399 37.2263 29.3165 36.3068 27.2919 35.9121C26.6767 35.7861 25.744 35.8192 24.4937 36.0115L23.847 36.111C22.7327 36.3265 21.2578 36.8513 19.4221 37.6853L21.5114 38.3569C21.0404 39.5989 20.5894 41.1136 20.1582 42.9011C20.1101 43.0188 19.8928 44.0452 19.5064 45.9803L21.8519 45.5202C24.2347 45.0875 26.1864 44.4343 27.707 43.5605C29.9787 42.2622 30.9638 40.6322 30.662 38.6706ZM27.428 55.0889C27.2026 53.6231 26.09 52.7019 24.0902 52.3255C23.4933 52.1745 22.5697 52.1952 21.3194 52.3875L20.5757 52.5019C20.4679 52.5185 20.3154 52.5309 20.118 52.5392C19.939 52.5226 19.8171 52.5193 19.7524 52.5293C19.4937 52.5691 19.09 52.7415 18.5411 53.0466L18.2824 54.8075C17.8844 55.95 17.4316 57.454 16.9242 59.3194C16.8446 59.6626 16.6489 60.6857 16.3371 62.3887L18.6278 62.0032C20.9858 61.5523 22.9449 60.8758 24.5053 59.9738C26.7522 58.6573 27.7264 57.029 27.428 55.0889ZM33.522 48.6571C34.8618 50.4811 35.5913 51.7812 35.7107 52.5572C35.8002 53.1392 35.8342 53.8622 35.8126 54.7261C35.5587 60.9658 32.3019 65.3283 26.0422 67.8137C25.7868 67.8751 23.5383 68.4636 19.2966 69.5794L13.0088 71.3079C10.7205 71.9246 8.5723 72.5198 6.56422 73.0935C7.0718 68.0726 7.81153 62.8394 8.78341 57.394C9.36058 53.9732 10.4145 49.5633 11.9452 44.1643C12.242 43.0815 12.6997 41.6099 13.3183 39.7495C12.6036 40.1242 11.976 40.4193 11.4354 40.6349L8.07793 31.7179C12.5849 30.3186 16.509 29.362 19.8502 28.848C20.6478 28.7254 21.5275 28.6342 22.4892 28.5745C25.1705 28.3607 26.7101 28.2563 27.1081 28.2613C28.5457 28.2829 30.1832 28.5275 32.0204 28.9952C36.0348 29.9886 38.3355 32.393 38.9223 36.2085C39.0052 36.7474 39.0342 37.4381 39.0093 38.2804C38.8533 42.1439 37.0242 45.6028 33.522 48.6571ZM75.8924 20.2613C74.1445 24.9655 72.409 30.5394 70.6859 36.983C70.0723 39.306 69.3003 43.6836 68.3698 50.1156C68.1293 51.8517 67.6666 55.2991 66.9816 60.4576L57.1194 64.5563C57.7547 60.2218 58.4869 55.8725 59.3162 51.5082C59.3891 51.1218 59.6304 49.8931 60.0401 47.8221L61.6272 41.3553C62.5161 37.9527 63.6587 34.1912 65.055 30.0707C59.2331 30.8117 54.8116 31.5469 51.7904 32.2764L53.6632 33.0475C53.5173 33.5334 53.1956 34.7413 52.6981 36.6714C52.0198 39.0045 51.5339 40.8666 51.2403 42.2578L49.7527 50.6622L49.4541 53.0251C49.1605 54.99 48.7367 58.7623 48.1827 64.3421L38.3753 68.3661C38.8762 63.8758 39.5189 59.2313 40.3034 54.4325C40.9303 50.7614 41.9826 46.3407 43.4602 41.1706C44.0821 39.0448 44.9245 36.4879 45.9875 33.4999C43.6097 34.1084 41.6348 34.6108 40.0628 35.007L41.1898 26.625C44.9108 25.854 49.3448 24.9845 54.4918 24.0163C57.5611 23.4559 64.6946 22.2043 75.8924 20.2613ZM105.087 15.7378L103.801 23.9457L100.697 24.4231C94.8978 25.315 90.3801 26.1423 87.1433 26.9049L88.9789 27.6487C88.8097 28.2705 88.3893 29.9129 87.7177 32.5759C87.5154 33.269 87.2989 34.0857 87.0684 35.0259L98.6119 32.8201L97.266 40.2097L85.8792 42.3583C85.4165 44.945 84.9795 48.2008 84.5681 52.1257C87.6673 51.4725 92.3069 50.5051 98.4869 49.2236L97.0988 57.4141C95.5036 57.6594 94.1024 57.8749 92.8953 58.0606L91.3432 58.2993C87.3768 58.9094 81.6528 60.4297 74.171 62.8604L74.1561 62.7634C74.1196 62.5262 74.317 60.6533 74.7482 57.1447C75.2657 53.049 75.7774 49.7045 76.2832 47.1111C77.1158 42.7684 78.1573 38.3494 79.4077 33.8541C79.877 32.1711 80.4226 30.4101 81.0445 28.5712C79.2022 29.0752 77.4553 29.5535 75.8038 30.0062L76.9532 21.5545C80.6393 20.7007 85.046 19.725 90.1731 18.6274C93.2291 17.9809 98.2004 17.0176 105.087 15.7378ZM128.834 23.5708C128.612 22.1265 127.488 21.207 125.464 20.8123C124.87 20.6829 123.948 20.7144 122.698 20.9067L122.019 21.0112C120.904 21.2267 119.44 21.7498 117.626 22.5805L119.715 23.2521C119.223 24.4974 118.772 26.0121 118.362 27.7963C118.314 27.914 118.097 28.9404 117.71 30.8755L120.024 30.4204C122.406 29.9877 124.369 29.3328 125.911 28.4557C128.161 27.1607 129.135 25.5324 128.834 23.5708ZM116.519 37.9766L116.009 40.9016C115.695 43.024 115.223 47.4107 114.591 54.0616L114.305 54.1387C111.499 55.1219 108.32 56.4053 104.768 57.9887C105.276 52.9678 106.016 47.7346 106.987 42.2892C107.565 38.8684 108.619 34.4585 110.149 29.0595C110.446 27.9767 110.904 26.5051 111.522 24.6447C110.786 25.0227 110.158 25.3178 109.639 25.5301L106.282 16.6131C110.789 15.2138 114.713 14.2571 118.054 13.7432C118.83 13.6239 119.699 13.5344 120.661 13.4747C123.364 13.2576 124.914 13.1515 125.312 13.1565C126.75 13.1781 128.387 13.4227 130.224 13.8904C134.239 14.8838 136.54 17.2882 137.126 21.1037C137.209 21.6426 137.227 22.3349 137.181 23.1806C137.018 27.8616 134.007 31.6678 128.147 34.5993C125.029 36.138 121.153 37.2637 116.519 37.9766ZM167.495 6.13871L166.209 14.3466L163.105 14.8241C157.306 15.716 152.788 16.5432 149.552 17.3059L151.387 18.0496C151.218 18.6715 150.798 20.3139 150.126 22.9769C149.924 23.67 149.707 24.4866 149.477 25.4268L161.02 23.221L159.674 30.6106L148.288 32.7592C147.825 35.346 147.388 38.6018 146.976 42.5267C150.076 41.8734 154.715 40.9061 160.895 39.6245L159.507 47.815C157.912 48.0604 156.511 48.2759 155.304 48.4616L153.752 48.7003C149.785 49.3103 144.061 50.8307 136.579 53.2613L136.564 53.1643C136.528 52.9272 136.725 51.0543 137.157 47.5456C137.674 43.4499 138.186 40.1054 138.692 37.512C139.524 33.1693 140.566 28.7503 141.816 24.255C142.285 22.572 142.831 20.811 143.453 18.9721C141.611 19.4762 139.864 19.9545 138.212 20.4071L139.362 11.9554C143.048 11.1016 147.454 10.1259 152.581 9.02839C155.637 8.3818 160.609 7.41858 167.495 6.13871ZM182.62 37.5407C184.249 37.2241 185.458 36.9829 186.249 36.8171L187.916 38.6129L188.406 36.4192L189.888 30.1339C189.903 29.8006 190.042 29.0511 190.304 27.8854C190.377 27.2122 190.713 25.5939 191.311 23.0303C192.101 17.2599 192.953 13.1129 193.866 10.5891L189.715 11.36C186.304 11.995 183.612 12.4973 181.639 12.867L184.101 13.8123C183.634 15.3627 183.202 17.0067 182.808 18.7445C182.106 21.7872 181.423 25.3788 180.758 29.5192C180.192 32.8721 179.37 35.8451 178.29 38.4385C179.7 38.1334 181.143 37.8342 182.62 37.5407ZM191.26 3.11234C192.756 2.79402 197.576 1.854 205.721 0.292286C204.384 3.94023 202.665 9.47847 200.564 16.907C200.505 17.0927 200.317 17.8829 200.002 19.2774L198.542 27.6445L198.211 30.0123C198.065 31.0719 197.877 32.6455 197.646 34.7331C199.084 34.4679 200.609 34.2001 202.223 33.9299L201.882 35.3725L201.524 36.9171C200.975 39.5171 200.414 42.6154 199.842 46.2119L189.97 50.2459C190.29 48.1666 190.615 46.1196 190.945 44.1049C188.854 44.4265 186.95 44.7415 185.232 45.0499L178.491 46.4176C176.679 46.8288 174.92 47.2317 173.216 47.6263L172.937 49.6882L172.706 52.2724L162.903 56.3288C163.315 52.6908 164.117 47.6467 165.309 41.1964C165.417 41.1798 165.544 41.1492 165.692 41.1044C167.368 40.67 168.634 39.5707 169.488 37.8064C170.078 36.7668 170.621 35.6351 171.117 34.4114C171.822 31.3902 172.503 28.3616 173.162 25.3255C174.225 21.19 175.319 17.4028 176.445 13.9637L172.423 15.1451L173.481 7.17093C176.268 6.49947 178.245 6.00789 179.41 5.69619C183.654 4.7346 187.476 3.90398 190.877 3.20435L191.26 3.11234Z" fill="#0046FE"/>
</svg>
