<svg width="313" height="132" viewBox="0 0 313 132" fill="none" xmlns="http://www.w3.org/2000/svg">
<path d="M13.4988 50.1715L0.736265 49.8437C3.52547 45.0884 6.51648 40.2979 9.7093 35.4719C12.1522 31.8204 15.4693 27.4918 19.6607 22.4861C21.4857 20.2711 23.9486 17.5406 27.0495 14.2947C28.7578 12.3418 30.863 10.1354 33.3652 7.67562L44.5036 10.1036L36.5409 18.4098C33.8436 21.3363 30.7484 25.0585 27.2553 29.5765L26.6269 30.3885C36.8859 23.4435 46.5997 17.7514 55.7682 13.3121L66.8636 15.898C63.604 17.9024 60.2602 20.257 56.8322 22.9616C55.8489 24.4115 54.0182 27.1448 51.3399 31.1617C49.6622 33.4168 46.7478 37.844 42.5965 44.4431C41.4793 46.2182 39.2765 49.7769 35.988 55.1193L23.234 54.76C23.4387 54.3411 23.9227 53.6027 24.686 52.545C25.455 51.4662 26.9606 49.2205 29.2026 45.8081C34.8077 38.0231 38.3123 33.2144 39.7165 31.382C38.9035 31.7932 37.2785 32.8193 34.8414 34.4604C26.3231 40.1622 19.8268 44.833 15.3525 48.4729C14.4476 49.2208 13.8298 49.787 13.4988 50.1715ZM95.2761 22.6312C91.7869 26.2233 87.9341 30.6093 83.7179 35.7891C82.2124 37.6617 79.737 41.3495 76.2916 46.8526C75.3447 48.335 73.5091 51.2932 70.785 55.727L60.1399 55.4682C62.4624 51.7612 64.8795 48.0801 67.3912 44.4247C67.6361 44.1072 68.3669 43.0858 69.5835 41.3605L59.062 39.7789L57.7649 41.7988C56.7396 43.4859 54.839 46.7654 52.0631 51.6373L41.4669 51.3239C43.7511 47.4256 46.2275 43.4442 48.8961 39.3795C50.9622 36.2808 53.7217 32.6704 57.1746 28.5484C59.8394 25.4096 63.7055 21.2646 68.7729 16.1136L69.7456 16.2772C71.8076 16.591 74.1633 17.0302 76.8126 17.5946C74.0694 20.4408 70.2166 24.8267 65.2544 30.7525C65.1453 30.9036 64.6633 31.552 63.8081 32.6978L73.2164 34.0096L73.6955 36.107C77.1752 31.721 81.6678 26.7297 87.1733 21.133L88.3038 21.3396C90.3238 21.642 92.6479 22.0725 95.2761 22.6312ZM122.019 29.8923L117.536 36.8759L114.38 36.0149C111.308 35.1769 108.638 34.4824 106.369 33.9314L108.297 35.8137C105.736 38.5738 102.156 43.5767 97.5569 50.8224C95.8524 53.5902 93.6419 57.3842 90.9254 62.2044L90.6155 62.2216C88.1651 62.0053 84.7335 61.9057 80.3205 61.9227C82.9146 57.3855 85.7248 52.8847 88.7512 48.4203C90.6202 45.6295 93.3902 42.022 97.0612 37.5978C97.947 36.5056 99.33 34.9161 101.21 32.8293C97.7999 32.238 93.9054 31.6391 89.5269 31.0325L93.9833 23.7706C97.8874 24.5417 102.31 25.4429 107.251 26.4742C110.305 27.1266 115.228 28.266 122.019 29.8923ZM151.877 38.0373L147.363 45.0123L144.334 44.1858C138.673 42.6418 134.21 41.5598 130.943 40.9399L132.317 42.366C131.91 42.8652 130.857 44.1946 129.161 46.3541C128.694 46.905 128.164 47.563 127.571 48.3281L139.014 51.0086L134.778 57.2118L123.502 54.5427C122.027 56.7176 120.303 59.5141 118.331 62.9322C121.428 63.5961 126.06 64.5997 132.227 65.9429L127.627 72.8604C126.07 72.4357 124.702 72.0626 123.524 71.7412L122.009 71.3279C118.137 70.2718 112.29 69.3323 104.466 68.5093L104.492 68.4147C104.555 68.1832 105.498 66.5525 107.319 63.5227C109.458 59.9917 111.285 57.1445 112.802 54.9811C115.33 51.3526 118.078 47.7394 121.049 44.1414C122.163 42.7949 123.377 41.4081 124.694 39.9812C122.806 39.6922 121.015 39.4186 119.322 39.1603L123.81 31.907C127.525 32.6264 131.947 33.5276 137.078 34.6106C140.132 35.263 145.066 36.4053 151.877 38.0373ZM170.384 54.8527C170.769 53.4429 170.117 52.146 168.428 50.9618C167.938 50.6022 167.083 50.2559 165.863 49.923L165.2 49.7422C164.094 49.4858 162.544 49.3681 160.549 49.389L162.184 50.8524C161.228 51.7897 160.2 52.9899 159.1 54.4532C159.008 54.5412 158.392 55.3905 157.252 57.001L159.55 57.5262C161.903 58.1002 163.962 58.3002 165.727 58.1263C168.31 57.8586 169.862 56.7674 170.384 54.8527ZM153.274 63.0033L151.619 65.468C150.469 67.2794 148.253 71.0944 144.97 76.9132L144.677 76.8672C141.714 76.6241 138.288 76.5034 134.4 76.5051C136.906 72.1248 139.71 67.6451 142.813 63.0659C144.732 60.1757 147.488 56.5758 151.083 52.2664C151.795 51.398 152.811 50.2398 154.133 48.7918C153.307 48.8377 152.613 48.852 152.053 48.8348L152.613 39.3231C157.299 39.8781 161.273 40.6004 164.535 41.4901C165.292 41.6967 166.122 41.9684 167.025 42.3051C169.583 43.2062 171.042 43.74 171.404 43.9064C172.708 44.5109 174.104 45.4005 175.593 46.5751C178.856 49.1155 179.979 52.2479 178.964 55.9722C178.82 56.4982 178.555 57.138 178.169 57.8917C176.116 62.1017 171.817 64.3539 165.271 64.6481C161.797 64.7856 157.798 64.2374 153.274 63.0033ZM212.794 54.6545L208.28 61.6295L205.25 60.803C199.59 59.259 195.126 58.177 191.859 57.5571L193.234 58.9832C192.826 59.4824 191.774 60.8118 190.077 62.9713C189.61 63.5222 189.08 64.1802 188.487 64.9453L199.93 67.6258L195.695 73.829L184.418 71.1599C182.944 73.3347 181.22 76.1312 179.248 79.5494C182.344 80.2133 186.976 81.2169 193.143 82.56L188.543 89.4776C186.986 89.0529 185.619 88.6798 184.44 88.3584L182.926 87.9451C179.054 86.889 173.206 85.9495 165.383 85.1265L165.409 85.0318C165.472 84.8004 166.414 83.1697 168.235 80.1399C170.374 76.6089 172.202 73.7617 173.719 71.5983C176.246 67.9698 178.995 64.3565 181.966 60.7586C183.079 59.412 184.294 58.0253 185.61 56.5984C183.722 56.3094 181.932 56.0358 180.239 55.7775L184.727 48.5242C188.441 49.2436 192.864 50.1448 197.994 51.2278C201.049 51.8802 205.982 53.0225 212.794 54.6545ZM228.052 95.4396C223.292 98.5497 218.051 99.3241 212.328 97.7629C207.699 96.5002 204.56 93.8354 202.911 89.7686C201.383 86.0059 201.296 81.6417 202.651 76.676C202.944 75.6029 203.317 74.4839 203.77 73.319C205.796 68.1296 209.249 64.1319 214.129 61.326C219.089 58.4742 224.083 57.7342 229.112 59.106C236.708 61.178 241.341 65.3694 243.01 71.6799L231.723 74.0264C231.153 70.7286 229.279 68.6464 226.102 67.7797C222.82 66.8843 219.78 67.2533 216.983 68.8867C214.342 70.4494 212.292 72.9082 210.834 76.2633C210.484 77.0495 210.234 77.7161 210.085 78.2631C209.362 80.9143 209.484 83.3666 210.452 85.62C211.469 88.0226 213.188 89.5539 215.608 90.214C218.259 90.9372 220.877 90.4983 223.461 88.8974L228.052 95.4396ZM280.235 73.0854C276.746 76.6776 272.893 81.0635 268.677 86.2433C267.171 88.1159 264.696 91.8038 261.25 97.3069C260.303 98.7893 258.468 101.747 255.744 106.181L245.099 105.922C247.421 102.215 249.838 98.5343 252.35 94.879C252.595 94.5614 253.326 93.54 254.542 91.8147L244.021 90.2331L242.724 92.253C241.698 93.9401 239.798 97.2196 237.022 102.091L226.426 101.778C228.71 97.8799 231.186 93.8984 233.855 89.8337C235.921 86.735 238.68 83.1247 242.133 79.0027C244.798 75.8638 248.664 71.7189 253.732 66.5678L254.704 66.7314C256.766 67.0453 259.122 67.4844 261.771 68.0488C259.028 70.895 255.175 75.281 250.213 81.2067C250.104 81.3578 249.622 82.0062 248.767 83.152L258.175 84.4638L258.654 86.5613C262.134 82.1753 266.627 77.1839 272.132 71.5872L273.263 71.7939C275.282 72.0962 277.607 72.5267 280.235 73.0854ZM309.797 89.8985L307.152 90.7706C307.314 93.0756 307.189 94.9856 306.776 96.5006C306.477 97.5947 305.893 99.0743 305.022 100.939C302.3 106.775 298.702 111.016 294.227 113.661C289.286 116.608 283.838 117.27 277.884 115.646C273.023 114.32 269.685 111.601 267.868 107.488C266.213 103.691 266.063 99.3093 267.418 94.3436C267.711 93.2705 268.084 92.1515 268.537 90.9866C270.584 85.8028 274.153 81.8367 279.243 79.0883C284.456 76.3053 289.724 75.64 295.047 77.0921C303.043 79.2732 307.959 83.542 309.797 89.8985ZM295.958 99.484C296.291 98.761 296.518 98.1785 296.638 97.7367C297.195 95.6957 297.01 93.9722 296.082 92.5662L297.973 92.0986C297.34 88.7836 295.319 86.6612 291.91 85.7313C288.46 84.79 285.283 85.1217 282.382 86.7264C279.614 88.2547 277.49 90.6934 276.011 94.0428C275.661 94.8289 275.412 95.4955 275.262 96.0426C274.539 98.6938 274.703 101.158 275.755 103.434C276.836 105.854 278.67 107.417 281.258 108.123C284.351 108.966 287.283 108.455 290.053 106.588C292.496 104.926 294.464 102.558 295.958 99.484Z" fill="#0046FE"/>
</svg>
