<svg width="287" height="113" viewBox="0 0 287 113" fill="none" xmlns="http://www.w3.org/2000/svg">
<path d="M38.0432 68.8208C37.659 67.1189 36.235 66.11 33.7713 65.7942C33.0542 65.6878 31.951 65.8027 30.4618 66.1389L29.6321 66.3262C28.3275 66.6878 26.6173 67.4316 24.5014 68.5577L27.0657 69.2197C26.6024 70.7329 26.1816 72.5831 25.8034 74.7702C25.7732 74.9335 25.607 76.1784 25.305 78.5048L28.0278 77.7895C30.8641 77.0821 33.1745 76.1245 34.9588 74.9168C37.5386 73.1717 38.5667 71.1397 38.0432 68.8208ZM35.5697 88.7643C35.1806 87.0411 33.7673 86.0298 31.3297 85.7305C30.5913 85.6289 29.4775 85.7462 27.9883 86.0824L27.1586 86.2697C27.0309 86.2985 26.8453 86.3181 26.6017 86.3283C26.358 86.3386 26.1937 86.3534 26.1086 86.3726C25.832 86.435 25.3691 86.6625 24.7199 87.055L24.5283 89.1776C24.1783 90.5982 23.7788 92.4435 23.3298 94.7137C23.2674 95.1302 23.1095 96.3621 22.8562 98.4092L25.5934 97.7577C28.3824 97.0386 30.6691 96.0752 32.4534 94.8675C35.0544 93.1176 36.0932 91.0832 35.5697 88.7643ZM42.3373 80.5624C44.0996 82.624 45.0863 84.1228 45.2977 85.0589C45.4514 85.7397 45.5429 86.591 45.5724 87.6129C45.7965 95.1419 42.2523 100.637 34.94 104.099C34.6305 104.214 31.9853 105.124 27.0043 106.83L19.6285 109.367C16.9349 110.311 14.4114 111.216 12.0582 112.082C12.2506 106.002 12.6894 99.6759 13.3746 93.1043C13.7817 88.9654 14.6803 83.5865 16.0703 76.9675C16.3545 75.6513 16.7872 73.8543 17.3686 71.5766C16.5375 72.0549 15.8114 72.4536 15.1903 72.7727L10.3969 62.3848C15.6771 60.3207 20.3064 58.8396 24.2847 57.9415C25.1995 57.735 26.2433 57.5552 27.4162 57.4022C30.6176 56.9254 32.462 56.6767 32.9492 56.6562C34.6663 56.5368 36.6468 56.6934 38.8909 57.1258C43.7764 57.9681 46.7283 60.6443 47.7465 65.1545C47.8954 65.814 47.9845 66.6547 48.014 67.6766C48.1668 72.3151 46.2746 76.6103 42.3373 80.5624ZM82.0294 52.5518L80.1023 54.5632C81.3272 56.5225 82.1125 58.2681 82.4583 59.7998C82.7081 60.9061 82.8861 62.4869 82.9924 64.5423C83.3263 70.9733 82.1381 76.4065 79.4279 80.8417C76.4472 85.7628 71.9465 88.9029 65.9258 90.2621C61.0114 91.3716 56.7871 90.5366 53.253 87.757C50.0105 85.18 47.8225 81.381 46.689 76.3602C46.4441 75.2753 46.2485 74.112 46.1024 72.8706C45.4782 67.3324 46.7689 62.1556 49.9747 57.3402C53.2724 52.4369 57.6125 49.3778 62.995 48.1626C71.0793 46.3375 77.4241 47.8006 82.0294 52.5518ZM74.3051 67.5097C74.2599 66.715 74.1868 66.0943 74.086 65.6475C73.6201 63.5839 72.6477 62.1488 71.1688 61.3424L72.6193 60.0423C70.505 57.4118 67.7247 56.4855 64.2782 57.2636C60.7892 58.0513 58.1398 59.8344 56.33 62.613C54.6025 65.2613 53.8715 68.4112 54.1369 72.0628C54.1966 72.9214 54.2889 73.6272 54.4137 74.1803C55.0189 76.8609 56.32 78.9596 58.3169 80.4763C60.4066 82.1063 62.7597 82.6259 65.3765 82.0351C68.5038 81.3291 70.8527 79.502 72.423 76.5539C73.8004 73.94 74.4278 70.9252 74.3051 67.5097ZM120.891 35.1255C119.474 39.9396 118.129 45.6205 116.857 52.1681C116.406 54.5282 115.94 58.9487 115.458 65.4298C115.338 67.1784 115.116 70.6495 114.79 75.8432L105.236 80.6161C105.569 76.248 105.998 71.8583 106.523 67.447C106.569 67.0565 106.724 65.8141 106.989 63.7196L108.124 57.1582C108.774 53.7022 109.653 49.8705 110.761 45.6631C105.004 46.8061 100.644 47.8463 97.6808 48.7836L99.6027 49.423C99.4908 49.9177 99.2536 51.1451 98.8912 53.1051C98.3764 55.4795 98.0208 57.3709 97.8245 58.7791L96.9234 67.2664L96.7894 69.6444C96.6329 71.6249 96.4718 75.4176 96.3061 81.0223L86.8015 85.717C86.9897 81.2027 87.3087 76.5248 87.7584 71.6832C88.1292 67.9774 88.8723 63.4944 89.9877 58.2342C90.4606 56.0704 91.1237 53.4612 91.9768 50.4067C89.6469 51.1787 87.7116 51.8168 86.1709 52.3211L86.7138 43.8811C90.3723 42.8539 94.7353 41.6789 99.8028 40.356C102.826 39.5841 109.855 37.8406 120.891 35.1255ZM145.053 41.275C144.732 39.8496 143.547 39.0102 141.5 38.7569C140.899 38.669 139.981 38.7644 138.747 39.0429L138.077 39.1942C136.981 39.4865 135.556 40.1099 133.804 41.0644L135.935 41.5895C135.53 42.866 135.185 44.4083 134.9 46.2166C134.86 46.3374 134.715 47.3764 134.464 49.3336L136.74 48.7192C139.087 48.1223 140.999 47.3328 142.477 46.3508C144.631 44.9029 145.49 43.2109 145.053 41.275ZM133.767 56.5003L133.461 59.4536C133.296 61.5927 133.129 66.0016 132.96 72.6804L132.68 72.7771C129.949 73.9526 126.867 75.4533 123.433 77.2793C123.591 72.2352 123.966 66.9634 124.558 61.4636C124.897 58.0111 125.642 53.5387 126.795 48.0466C127.016 46.9458 127.37 45.446 127.858 43.5471C127.15 43.9753 126.544 44.3132 126.041 44.561L122.073 35.8984C126.472 34.1898 130.321 32.9633 133.618 32.2188C134.384 32.0459 135.245 31.8963 136.2 31.7701C138.881 31.366 140.42 31.1527 140.818 31.13C142.254 31.0519 143.904 31.1823 145.769 31.5214C149.843 32.2339 152.305 34.473 153.155 38.2386C153.275 38.7704 153.341 39.4598 153.353 40.3067C153.516 44.9877 150.776 48.9936 145.133 52.3245C142.13 54.0758 138.341 55.4677 133.767 56.5003ZM190.246 28.121L188.319 30.1323C189.544 32.0917 190.329 33.8372 190.675 35.369C190.925 36.4753 191.103 38.0561 191.209 40.1115C191.543 46.5425 190.355 51.9756 187.644 56.4108C184.664 61.3319 180.163 64.4721 174.142 65.8313C169.228 66.9408 165.004 66.1057 161.469 63.3262C158.227 60.7491 156.039 56.9502 154.906 51.9294C154.661 50.8444 154.465 49.6812 154.319 48.4397C153.695 42.9015 154.985 37.7247 158.191 32.9093C161.489 28.0061 165.829 24.9469 171.211 23.7318C179.296 21.9067 185.641 23.3697 190.246 28.121ZM182.522 43.0788C182.476 42.2841 182.403 41.6634 182.302 41.2166C181.837 39.153 180.864 37.718 179.385 36.9116L180.836 35.6115C178.722 32.9809 175.941 32.0547 172.495 32.8328C169.006 33.6204 166.356 35.4036 164.546 38.1822C162.819 40.8304 162.088 43.9804 162.353 47.632C162.413 48.4905 162.505 49.1963 162.63 49.7495C163.235 52.4301 164.536 54.5287 166.533 56.0455C168.623 57.6754 170.976 58.195 173.593 57.6043C176.72 56.8983 179.069 55.0712 180.639 52.1231C182.017 49.5091 182.644 46.4944 182.522 43.0788ZM224.978 47.8147C222.234 52.7941 217.969 55.937 212.182 57.2434C207.502 58.3 203.48 57.4194 200.116 54.6014C197.001 51.9955 194.877 48.1822 193.743 43.1614C193.498 42.0764 193.303 40.9132 193.157 39.6717C192.511 34.1383 193.685 28.9879 196.678 24.2206C199.72 19.375 203.784 16.3782 208.869 15.2303C216.549 13.4965 222.606 15.0244 227.041 19.8141L218.174 27.1821C216.123 24.5371 213.492 23.5773 210.279 24.3025C206.961 25.0518 204.45 26.8037 202.746 29.5583C201.146 32.1777 200.49 35.3108 200.776 38.9576C200.836 39.8162 200.928 40.522 201.053 41.0751C201.658 43.7557 202.917 45.864 204.829 47.3999C206.855 49.0443 209.091 49.5903 211.537 49.038C214.218 48.4328 216.324 46.8171 217.855 44.1909L224.978 47.8147ZM272.877 15.3019L274.471 4.98122C274.862 2.45578 275.119 0.966932 275.24 0.514688L272.869 1.45236C271.759 1.88192 270.799 2.18795 269.991 2.37046C269.736 2.42809 269.47 2.48813 269.193 2.55057L267.563 3.05284C267.317 3.84616 267.045 5.0701 266.748 6.72467L265.626 12.7466C265.257 14.7752 264.992 16.1765 264.831 16.9506C263.917 21.517 263.184 25.9976 262.634 30.3925C262.321 32.9673 262.063 36.3345 261.862 40.4939C261.654 44.0289 261.576 45.9134 261.629 46.1474L261.651 46.2431C263.995 44.8419 266.991 43.5508 270.637 42.3699L271.278 34.8131C271.355 33.5661 271.464 31.9205 271.606 29.8761L272.245 22.4542C272.446 19.882 272.56 18.2576 272.586 17.581C272.788 16.3951 272.885 15.6354 272.877 15.3019ZM251.342 33.4112C251.015 31.9645 249.842 31.1227 247.821 30.8859C247.193 30.7816 246.252 30.8711 244.997 31.1544L244.327 31.3057C244.22 31.3297 244.069 31.3527 243.873 31.3747C243.672 31.3754 243.529 31.3853 243.444 31.4045C243.21 31.4573 242.84 31.6526 242.335 31.9902L242.135 33.7793C241.86 34.937 241.523 36.4663 241.125 38.3673C241.091 38.7104 240.966 39.7446 240.752 41.4699L243.043 40.9192C245.364 40.3058 247.261 39.4975 248.733 38.4942C250.905 37.0202 251.774 35.3259 251.342 33.4112ZM234.541 26.1367C234.743 25.1519 234.932 24.3044 235.107 23.5941C235.254 22.9572 235.422 22.215 235.61 21.3675C236.03 19.4618 237.149 15.408 238.969 9.20634L239.897 8.86256C241.892 8.18873 244.18 7.48198 246.763 6.7423C245.728 10.3747 244.651 14.7654 243.533 19.9144C243.44 20.4942 243.333 21.1109 243.212 21.7642C243.173 21.885 243.073 22.634 242.915 24.0113C244.347 23.6209 245.726 23.343 247.053 23.1777C248.5 23.0522 250.161 23.1803 252.036 23.5619C256.1 24.2319 258.557 26.4497 259.408 30.2152C259.532 30.7684 259.593 31.4814 259.589 32.3544C259.809 38.6769 256.893 43.2926 250.842 46.2014C250.57 46.2852 248.358 47.0307 244.204 48.438L238.083 50.5913C235.843 51.3653 233.741 52.1081 231.777 52.8196C231.935 47.7756 232.3 42.5061 232.87 37.0112C232.916 36.6207 232.971 36.2172 233.033 35.8006C232.315 36.1863 231.72 36.5218 231.248 36.8073L227.055 28.6316C229.829 27.6476 232.324 26.816 234.541 26.1367Z" fill="#0046FE"/>
</svg>
